<?xml version="1.0" standalone="no"?>
<!DOCTYPE svg PUBLIC "-//W3C//DTD SVG 1.1//EN" "http://www.w3.org/Graphics/SVG/1.1/DTD/svg11.dtd">
<svg xmlns="http://www.w3.org/2000/svg">
<metadata>Generated by Fontastic.me</metadata>
<defs>
<font id="untitled-font-5" horiz-adv-x="512">
<font-face font-family="untitled-font-5" units-per-em="512" ascent="480" descent="-32"/>
<missing-glyph horiz-adv-x="512" />

<glyph glyph-name="central-pin" unicode="&#98;" d="M256 397c-44 0-81-38-81-84 0-46 36-84 81-84 45 0 81 38 81 84 0 46-36 84-81 84z m0-150c-35 0-63 29-63 66 0 36 28 66 63 66 35 0 63-30 63-66 0-37-28-66-63-66z m179 65c-6 98-84 174-179 174-94 0-173-76-179-174-2-26 2-51 10-75 9-23 23-45 41-65l122-143c2-2 4-3 6-3 3 0 5 1 7 3l121 143c18 19 32 41 41 65 8 24 12 49 10 75z m-26-68c-8-21-20-41-38-60l-115-136-115 136c-17 19-29 38-37 60-8 22-11 44-10 66 6 78 68 158 162 158 95 0 157-80 162-158 2-22-2-45-9-66z"/>
<glyph glyph-name="central-calender" unicode="&#97;" d="M146 396l-33 0 0 12-21 0 0-34 76 0 0 34-22 0z m253 0l-33 0 0 12-22 0 0-34 77 0 0 34-22 0z m54 45l-33 0 0 23c1 6-2 11-6 16-4 4-10 6-15 6l-33 0c-6 0-12-2-16-6-4-5-6-10-6-16l0-23-176 0 0 23c0 12-9 22-22 22l-33 0c-5 0-11-2-15-6-4-5-7-10-6-16l0-23-33 0c-19 0-33-15-33-33l0-349c0-18 14-33 33-33l394 0c19 0 33 15 33 33l0 349c0 18-14 33-33 33z m11-382c0-6-5-11-11-11l-394 0c-6 0-11 5-11 11l0 270 416 0z m0 293l-416 0 0 56c0 6 5 11 11 11l54 0 0 45 33 0 0-45 220 0 0 45 33 0 0-45 54 0c6 0 11-5 11-11z m-230-90l-44 0 0-23 44 0z m88 0l-44 0 0-23 44 0z m87 0l-43 0 0-23 43 0z m-263-57l-43 0 0-22 43 0z m88 0l-44 0 0-22 44 0z m88 0l-44 0 0-22 44 0z m87 0l-43 0 0-22 43 0z m-263-56l-43 0 0-22 43 0z m88 0l-44 0 0-22 44 0z m88 0l-44 0 0-22 44 0z"/>
<glyph glyph-name="central-time" unicode="&#99;" d="M255 485c-126 0-229-103-229-230 0-126 103-229 229-229 127 0 230 103 230 229 0 127-103 230-230 230z m0-434c-112 0-204 92-204 204 0 113 92 205 204 205 113 0 205-92 205-205 0-112-92-204-205-204z m13 281l-25 0 0-82 93-93 18 18-86 86z m0 115l-25 0 0-51 25 0z m-25-383l25 0 0 51-25 0z m-179 179l51 0 0 25-51 0z m332 25l0-25 51 0 0 25z"/>
<glyph glyph-name="central-search" unicode="&#100;" d="M476 89l-86 87c-10 10-25 14-38 10l-14 14c29 30 46 71 46 115 0 94-80 171-179 171-99 0-179-77-179-171 0-95 80-172 179-172 38 0 74 12 105 33l14-15c-4-13-1-27 9-37l86-86c-41-16-62-61-47-102 16-41 61-62 102-47 55 0 100 44 101 99 0 56-44 101-99 101z m-271 116c-63 0-115 49-115 110 0 61 52 110 115 110 64 0 115-50 115-110 0-61-52-110-115-110z"/>
<glyph glyph-name="central-upgradecar" unicode="&#101;" d="M154 150c3 4 7 7 10 10 22 18 54 41 93 41l93 0c17 0 29-15 42-30 11-13 23-27 37-27l57 0 0-6c0-1 0-2 0-3 0-18-4-36-13-53-9-15-23-27-39-28 1 4 2 8 2 12 11 2 20 10 27 22 7 14 12 29 12 44l-46 0c-19 0-32 16-46 32-11 13-22 26-34 26l-92 0c-34 0-62-20-82-36l-4-3 146 0c0-5-3-10-7-11l-134 0c-17 0-33-1-49-3-20-2-38-5-52-10-28-9-45-25-35-61l27 0 10-12-45 0-1 4c-15 47 5 69 40 80 16 5 35 8 54 10 10 1 19 2 29 2z m11-84c0-4-1-8-2-12l185 0-10 12z m-55 49c23 0 42-19 43-42 2-23-16-43-39-45-23-2-44 15-47 38l12 0c3-17 18-28 34-26 16 1 29 15 29 31 0 16-12 30-28 32-17 2-32-9-35-25l-12 0c4 21 22 37 43 37z m271 0c24 0 43-19 44-42 1-23-17-43-40-45-23-2-43 15-47 38l12 0c3-17 18-28 34-27 16 2 29 15 29 32 1 16-12 30-28 32-16 2-32-9-35-25l-11 0c3 21 21 37 42 37z m-166 100c-1 0-3 1-4 2l-69 69c-1 1-2 2-2 4 0 1 1 2 2 3l27 27c1 1 2 2 3 2 2 0 3-1 4-2l39-39 128 128c1 1 2 1 4 1 1 0 2 0 3-1l27-27c1-1 2-2 2-3 0-2-1-3-2-4l-158-158c-1-1-3-2-4-2z m-62 75l62-62 151 150-19 20-128-128c-1-1-3-2-4-2-1 0-3 1-4 2l-39 39z m-56 21c0 68 42 128 106 150 64 23 135 3 177-50 42-53 46-126 10-184l17 0c40 73 23 164-41 217-64 53-156 53-220 0-64-53-82-144-41-217l16 0c-15 25-24 54-24 84z"/>
<glyph glyph-name="centarl-assistance" unicode="&#102;" d="M173 307l14 38-5-48-17 8 0-6 8 0z m-22-54c-2 2-5 3-8 4-5 3-11 3-17 0-2-1-5-2-7-4-9-9-9-23 0-32 2-2 5-4 7-5 9-4 18-2 25 5 8 9 8 23 0 32z m3-24c-1-3-3-5-5-7-3-4-9-6-14-6-6 0-11 2-15 6-8 8-8 21 0 29 2 2 5 4 7 5 5 2 11 2 16 0 5-2 9-6 11-11 2-6 2-11 0-16z m267 17c-2 0-5-1-6-3-4-3-4-9 0-13 1-2 4-3 6-3 3 0 5 1 7 3 4 4 4 10 0 13-2 2-4 3-7 3z m62-9l0 4c0 1 0 3 0 4 0 3 0 6-1 8 0 6-1 11-2 17-1 2-2 5-3 8-1 1-1 2-2 3-1 2-2 3-3 4 0 0-1 1-1 1l-1 0 0 0c0 0 0 0 0 0l-5 0-8 53 4 2c30 1 55-23 56-53 1-30-23-55-53-56 1-1 3-2 5-4l1 2c-3 3-7 5-12 6-2 0-5 0-7 0-42 2-77-31-79-73-2-42 31-77 73-79-1-18-2-38-2-60l0-1-1 0 0-11-1-39-2-15-6-3-12-6-46-25c-3 2-5 4-8 6-11 7-23 14-35 20-12 6-24 11-37 15-6 2-13 4-19 5-4 1-7 1-10 2-2 0-3 1-5 1l-3 0-2 0-31 0c-10 0-20-27-30-8-20-118-41-3-61-6-5-67-10-68-15-2l-2-29-1-16-1-15 0 0c0 0 0 0 0 0l0-9-2-1-26-17c-4-3-8-6-12-9l-2-104c0-36-1-73-2-111-1-1-2-2-3-2-1-2-3-4-4-7 0-32 0-63 0-97-1-34-1-4-1-5l0-1c0 0 0 0 0 0l0-28-5 0 0 743c0-1 0-1 0-2 1-1 1-3 2-4 0-1 1-3 2-4 0-6 1-10 2-10l0-77 38-2-34 72 35 0c1-4 4-8 7-11 3-3 7-6 11-7 9-4 19-4 27 0 5 1 9 4 12 7 3 3 5 7 7 11l222 0c2-4 4-8 7-11 4-3 8-6 12-7 9-4 18-4 27 0 4 1 8 4 11 7 4 3 6 7 8 11l32 0 0 12z m-418 46l0 8 8 0 0-7-8-8z m1-45l0 0-1 0 0 1c-1 0-1 1-2 1-1 1-1 2-2 3 0 2-1 3-1 4 0 1 0 1 0 2l0 18 56 0c-2-2-4-3-6-5-7-7-10-15-11-24z m100-14c-2-5-4-8-7-11-4-4-7-6-11-8-9-3-18-3-26 0-4 2-8 4-11 8-8 8-11 19-9 30 2 11 10 21 20 25 8 3 17 3 26 0 4-2 7-4 11-7 9-10 12-25 7-37z m192 74l0-68-161 0-34 55 0 13-50 0 0 7 18 29 0 6 1 0 2 0c3 1 6 1 8 1 5 1 11 2 16 2 11 2 21 3 32 4 10 0 21 1 31 1l32 0 2-20 2-1 3-49c3-37 5-78 7-125 5-93 10-94 14-3 9-3 18-6 27-10 9-3 17-8 25-12 4-3 8-5 12-8 4-2 8-5 12-8l0-75 1 0z m119-25c0-127 2-108 3-56 3-11 5-142 7-142l-14 0-5 198z m-99 28l-1 3-1 1 46 24 11 6 6 3 3 2 74 0 18 0 1 0c-1 0 97 1 148 1 4 1 8 2 13 1l-1-12-80-42z m2-4l-1 1 76 40 8-52-8 0 0-7-67 0z m72-73c-1-5-4-8-7-11-3-4-7-6-11-8-8-3-17-3-25 0-5 2-8 4-11 8-14 13-14 34 0 48 3 3 6 5 11 7 8 3 17 3 25 0 4-2 8-4 11-7 10-10 13-25 7-37z m33 0l-30 0c1 4 2 8 2 12l25 0 3-3z m-350 22c-3 0-5-1-7-2-4-4-4-10 0-14 2-2 4-3 7-3 2 0 5 1 7 3 3 4 3 10 0 14-2 1-5 2-7 2z m116 53l12 0-14 47-8 0 10-36z m7-12l0-55 98 0 0 66-105 0z m5-3c0 1 1 3 2 4 1 1 3 2 4 2l14 0c3 0 6-2 6-5 31 0 57-25 57-56 0-31-25-56-57-57l0-1c0-1 0-3-1-4-1-1-3-1-4-1l-15 0c0 0 0 0-1 0-1 0-3 1-3 2-1 1-1 1-1 2 0 0-1 1-1 1l0 1z m174-31c-2 2-4 3-7 4-6 3-12 3-17 0-3-1-5-2-7-4-9-9-9-23 0-32 2-2 4-4 7-5 8-4 18-2 24 5 9 9 9 23 0 32z m3-24c-1-3-2-5-4-7-4-4-9-6-15-6-5 0-10 2-14 6-5 5-7 12-6 19 2 6 6 12 13 15 5 2 10 2 15 0 3-1 5-3 7-5 6-6 7-15 4-22z m-275 69l0-13 33-53 58 0 0 54-7 12z m210-214l0 4c0 0 0 1 0 1 0 1-1 2-1 2 0 3-1 6-2 9-4 12-14 21-26 25-6 2-12 2-18 2-6-1-12-4-17-7-1-48-2-99-2-152l-27 16 36 25 6-8 41 183-15 23-45-28 6-8-42-29-34 20c-1 1 20 1-1 2 1 7 0 13-2 19-4 11-14 20-26 24-6 2-12 2-18 1-3 0-6-1-9-2-1-29-2-60-2-92l-1-6-1-25-1-46-2-111 0 0c0 0 0 0 0 0l1-14 30-57 2-145 30-17-6-11-13-23-59 508-2 1-1 1-1 0c0 0 0 0 0 0l0-4c0 0 0-1 0-1 0-1 17-26 3-26 0-3 1-6 2-9 8-2 16-3 24-1-41-5-70-42-65-83 5-41 42-71 83-65 6 0 12 3 17 6-1 1 0 1 2 2l22-13-16 136-1 1c0 0 0 0 0 1 0 0 0 0-1 0-4 6-12 6-17 2l-22-15-11-8-6-4-2-2c-5-3-7-10-5-16-45 0-81-36-80-81 0-45 36-81 81-81 0-26 6-77 6-77l0-70 2-2 8-11c0-23 48-72 48-72l1-70c-36 0-64-29-64-65 1-35 29-63 65-63 3-2 6-4 10-3 2 0 4 1 6 2l22 16 11 7-47 577 2 2c1 0 2 1 3 2 3 5 4 11 1 16 0 0 0 0 0 0l-1 1-1 2 21 14 39-23c0-8 0-1 0-2 0-6 0-13 3-18 4-12 14-21 26-25-34-5-58-37-53-71 5-35 37-59 71-54 3 1 6 2 9 3-1 0 142 1 2 1l-1 0 5 1 9 0 2 1 12 0c0 0 0 0 0 0l-1 0-22 124-1 1-2 1-31 18 13 22 6 11 31-18 2-144 57-28 13 0c0 0 0 0 0 1z m-142 80c0-5-2-11-5-16-6-11-16-18-28-20-6-1-12 0-18 2-11 3-20 12-24 23-1 3-2 6-3 9 0 1 0 1 0 2 0 0 0 1 0 1l0 1-1-82 32-19 13 24 8 13-32 18-2 1 0 0 1 0 3 82c1 0 2 1 3 1 2 1 5 2 8 2 33 5 63-17 68-50 4-32-18-63-51-67-25 6-41 33-34 59 7 26 34 41 59 34 3-6 3-12 3-18z m-1-63l-4 5-2 3 17 12 9-6z m39 40l41 28 5-8-37-26z m102-54l-2 1-32 19-7-13-13-24 32-18 1-82 0 0-1-26-1-48c0-30-1-61-2-88-66-8-126 40-133 107-7 66 41 126 108 133-12 3-21 12-25 23-5 11-4 24 2 34 6 11 16 18 28 20 39 4 75-23 80-63 5-39-23-74-62-79 11-4 20-12 24-24 1-2 2-5 2-8 1-74 147-2 147-2 0-1 0-1 0-1l0-1 0 140z m-295 43c-21 25-35 55-41 87-6 32-5 65 4 96 13 48 43 88 84 115 69 45 159 43 226-7 26-19 47-44 62-73l6 3c-15 30-37 56-64 76-13 10-28 19-43 25-15 6-32 11-48 13-16 3-33 3-50 2-33-3-65-14-93-33-43-27-74-70-88-118-9-33-10-67-3-100 10-50 37-95 78-126 13-10 27-18 43-25l3 7c-15 6-29 14-42 24-13 10-24 21-34 34z m302-10l5-5c18 19 32 41 42 66l-7 3c-9-24-23-46-40-64z"/>
<glyph glyph-name="central-kids" unicode="&#103;" d="M472 159c0 3-2 6-5 7-27 11-55 20-84 26-3 51-24 96-57 124l67 66c1 1 2 3 2 5 0 2-1 4-2 6l-23 22c-3 3-8 3-11 0l-70-68c-1 2-1 5-1 7l0 14c17 10 29 27 31 46l0 1c0 1 0 2 0 3 0 0 0 1 0 1 0 1 14 2 14 4 0 35-29 64-64 64-36 0-64-29-64-64 0-2 0-3 13-4 0 0 0-1 0-1 0-1 1-2 1-3l0-1c2-19 14-36 31-46l0-14c1-10-4-20-13-24-8-5-19-4-27 2-45-22-76-76-81-138-29-7-57-16-84-28-3-2-5-4-5-7 0-3 1-5 4-7l32-22c-27-2-48-25-46-52 2-27 26-47 53-45 15 5 30 10 45 14 113-45 10-85 25-113 25-2 47 17 49 42 2 25-17 48-42 50l40 0c3 0 5 1 7 3 1 3 1 6 0 8-9 19-14 45-15 78 42 8 86 8 128 0-1-33-6-59-15-78-1-2-1-5 0-8 2-2 4-3 7-3l40 0c3 0 6 1 7 4 15 28 24 68 25 113 15-4 30-9 46-14 2-1 4 0 7 1l31 22c3 2 4 4 4 7z m-105 37c-38 8-77 12-116 12-11 0-23-35-34-106l98 98c29 81 48 41 52-4z m-111 274c26 1 48-21 48-47 0-1 0-2 0-3 0-1 0-1 0-1-2-17-12-32-27-39l-1-26c-13-6-27-6-40 0l-1 0c-15 8-25 23-27 40 0 0 0 0 0 0 0 1 0 2 0 3-10 16-10 37 0 52 11 16 29 24 48 21z m-39-152c14 7 23 21 23 36l0 7c11-2 22-2 32 0l0-7c0-7 2-14 5-19l-131-131c7 52 34 95 71 114z m130-276l-23 0c8 20 12 47 12 79 0 4-2 7-6 8-49 10-99 10-148 0-3-1-6-4-6-8 0-32 4-59 12-79l-23 0c-13 27-20 63-21 105 3 0 6 1 9 2 70 15 132 16 201 1 4-106 9-2 14-3-1-42-8-79-21-105z m84 104c-127 41-222 41-350 0l-17 11c25 10 50 18 75 23l-2 1c0 0 2 0 3 0 2 0 3 1 4 2l0 0 220 216 11-12-185-184c-3-2-3-6-2-9 2-3 5-5 8-5 85 9 171-3 251-32z"/>
<glyph glyph-name="centarl-officemap" unicode="&#104;" d="M414 180l-68 0 0 68-14 0 0-68-68 0 0-14 68 0 0-68 14 0 0 68 68 0z m-143 111c1 3 2 6 3 10 10 36-4 75-35 97-31 22-72 22-103 0-31-22-45-61-35-97 1-4 2-7 3-9l3-7 81-149 81 149z m-11 13c0-2-1-5-2-7l-2-5-68-126-68 126-3 5c0 2-1 5-2 7-9 31 3 64 29 82 26 19 61 19 87 0 26-18 38-51 30-82z m-72 61c-22 0-40-18-40-40 0-22 18-39 40-39 22 0 40 17 40 39 0 22-18 40-40 40z m0-65c-14 0-26 11-26 25 0 14 12 26 26 26 14 0 25-12 25-26 0-14-11-25-25-25z m-47 186l-115 0 0-113 14 0 0 99 101 0z m331-347l0-99-101 0 0-14 115 0 0 113z"/>
<glyph glyph-name="central-mini" unicode="&#105;" d="M485 259c-3 11-14 18-26 18-4 0-9-1-13-3-15-7-72-34-96-44 0 0 0 1 0 1l0 0c-3 13-14 23-27 23l-53 0c-15 0-29 4-44 8-15 5-31 10-49 10-31 0-45-8-66-18-8-4-18-9-30-14l0 14-54 0 0-146 54 0 0 20c27 7 58 11 91 12l6 0c33 0 51-2 75-8 13-4 26-3 40 3 47 21 125 62 170 88 24 14 23 30 22 36z m-413-142l-36 0 0 128 36 0z m387 114c-45-26-123-67-170-87-12-5-23-6-34-4-24 7-43 9-77 9l-6 0c-30 0-61-4-91-12l0 93c14 5 25 11 34 16 20 10 34 17 62 17 17 0 32-5 47-9 14-5 29-9 46-9l53 0c9 0 17-7 18-17-1-11-11-20-23-20l-127 0 0-9 127 0c13 0 25 8 30 20 21 9 101 47 102 47 3 1 6 2 9 2 8 0 15-5 17-12 2-8-4-17-17-25z m-209 73c0-16 13-28 29-28 15 0 28 12 28 28l50 0c1-16 13-28 29-28 15 0 28 12 28 28l36 0 0 10c1 20-13 38-32 44l-21 6-3 3c-20 22-34 37-68 37l-1 0c-33-1-47-11-68-29-2-2-4-3-6-5-3-3-6-5-9-6-12-4-19-15-19-27l0-5c0-16 11-28 27-28z m28-19c-10 0-19 9-19 20 0 11 9 19 19 19 11 0 20-8 20-19 0-11-9-20-20-20z m108 0c-11 0-20 9-20 20 0 11 9 19 20 19 11 0 19-8 19-19 0-11-8-20-19-20z m-59 110c28-48 40-12 58-32l-58 0z m-64-27c19 16 31 25 55 27l0-32-61 0z m-21-14l156 0 17-5c16-5 27-19 26-35l0-1-28 0c-3 12-15 21-27 21-13 0-24-9-28-21l-52 0c-4 12-15 21-28 21-12 0-23-9-27-21l-1 0c-11 0-18 8-18 19l0 5c0 7 4 14 10 17z"/>
<glyph glyph-name="central-edit" unicode="&#106;" d="M398 486c-1 0-2-1-3-2l-352-352c-1-1-1-2-2-4l-15-94c0-4 2-7 6-8 1 0 2 0 2 0l95 15c1 0 2 1 3 2l352 352c2 3 2 7 0 10l-80 79c-1 2-4 3-6 2z m2-17l69-69-35-35-69 69z m-45-44l69-70-300-301-82-13 13 83z"/>
<glyph glyph-name="central-prev" unicode="&#107;" d="M30 265c-3-2-4-6-4-9 0-4 1-7 4-10l217-216c13-13 32 6 19 19l-184 184c-5 5-3 10 4 10l387 0c6 0 11 3 13 8 1 2 1 3 1 5 0 8-6 14-14 14l-387 0c-7 0-9 4-4 9l184 184c13 13-6 32-19 19z"/>
<glyph glyph-name="central-next" unicode="&#108;" d="M483 265c2-2 4-6 4-9 0-4-2-7-4-10l-218-216c-13-13-32 6-19 19l184 184c5 5 4 10-4 10l-387 0c-5 0-10 3-12 8-1 2-1 3-1 5 0 4 1 7 4 10 2 2 6 4 9 4l387 0c7 0 9 4 4 9l-184 184c-13 13 7 32 19 19z"/>
<glyph glyph-name="central-popover" unicode="&#109;" d="M263 485c-126 5-231-94-236-221 0-3 0-6 0-8l0-202c0-7 3-14 8-20 5-5 12-8 20-8l199 0c126-3 230 98 232 225 3 127-97 232-223 234z m32-218l0 0-22-87c-1-5 1-10 6-11-8-1-14-8-13-16 0-8 7-14 15-13 5 0 9-4 9-9l0-18c0-4-4-8-9-8l-48 0c-13 0-24 11-23 24 0 2 0 4 0 5l23 87c1 3 0 6-2 8-1 2-4 3-7 3-4 0-8 4-8 9l0 47c0 4 4 8 9 8l48 0c13 0 23-11 23-24 0-2 0-4-1-5z m-5 55l-1-67 0 0c-6-6-15-9-23-9-9 0-18 3-24 10-13 13-12 34 1 47 13 13 33 13 46 0-2 6-1 13 1 19z"/>
<glyph glyph-name="iconset1-14" unicode="&#110;" d="M231 105c-95 0-178 80-178 172l0 80c52 6 94 49 99 103l157 0c5-54 47-98 100-103l0-81c-1-10-2-20-4-29 9-2 17-4 25-7 3 12 4 24 4 37l0 105-13 0c-48 0-88 40-88 89l0 15-206 0 0-15c0-49-39-89-88-89l-12 0 0-106c0-107 93-197 203-197 14 0 27 1 41 4-4 8-6 17-7 25-11-2-22-3-33-3z m152 125c-56 0-102-46-102-102 0-57 46-103 102-103 57 0 103 46 103 103 0 27-11 53-30 72-20 20-46 30-73 30z m0-185c-46 0-83 37-83 83 0 46 37 83 83 83 46 0 83-37 83-83 0-46-37-83-83-83z m22 73c9 16 7 35-5 48-16 15-41 15-56 0-14-14-15-36-3-52 12-15 34-19 51-9l25-25c4-3 10-3 13 1 4 3 4 9 1 13z m-18 7c-8-8-20-7-28 0-8 8-8 20-1 28 4 4 9 6 14 6 6 0 11-2 15-6 8-8 8-20 0-28z m-99 110c0-10 8-18 18-18 9 0 17 8 17 18 0 10-8 17-18 18-4 0-9-2-12-6-3-3-5-8-5-12z m-126 0c0 10-8 17-18 17-10 0-18-7-18-17 0-5 2-10 6-13 3-3 7-5 12-5 10 0 18 8 18 18z m143 26c15 0 27-12 27-26l15 0 0 35c0 16-11 30-27 34l0 19c0 18-13 32-30 32l-85 0c-3 1-5 0-7-1-19-15-35-33-48-54-27-10-45-36-45-65l13 0c0 14 12 26 27 26 15 0 26-12 26-26l108 0c0 14 12 26 26 26z m-68 44l-60 0c-4 1-7 1-11 1 11 15 24 29 39 41l33 0z m11 0l0 40 43 0c10 0 19-10 19-22l1 0 0-18z"/>
<glyph glyph-name="central-fuel" unicode="&#111;" d="M140 486c-15 0-27-59-38-3-10 57-19-6-26-14-13-15-15-37-15-72l0-340c-11-5-10-14-10-21 0-6 5-10 10-10l292 0c6 0 11 4 11 10 0 8-1 16-11 21l0 205c7-10 11-21 13-33 5 0 7-2 8-5-5-25-8-42-8-57 63-30 16-73 50-74 20-10 35 11 41 35 9 78 77 113-12 170-4 20-18 40-32 56-8 22-17 44-29 64-3 4-7 5-11 6-5-1-9-5-9-11 0-3 1-5 3-8 11-10 22-22 30-32 5-6 9-11 13-17-20 0-37-17-36-37 0-20 16-37 36-37 9 0 16 3 23 8 14-61 13-80 4-125-4-12-12-19-21-19-22 8-29 32-29 53 2 19 4 38 8 57-2 16-12 24-26 26-5 1-11 1-16 1l0 114c0 35-2 57-15 72-6 8-16 12-26 14-10 3-22 3-37 3z m0-21l135 0c14 0 25-56 32-2 8 54 12-4 16-8 6-7 9-24 9-58 0-113 0-226 0-340 0-4 2-7 3-10l-256 0c2 3 3 6 3 10l0 340c0 34 4 51 10 58 3 4 7 6 15 8 8 2 19 2 33 2z m-28-31c-5 0-9-5-9-10l0-115c0-6 5-11 10-11l188 0c6 0 10 5 10 11l0 115c0 5-4 10-10 10z m12-21l167 0 0-94-167 0z m286-78c8 0 14-5 16-13 0-10-8-18-16-19-8 0-15 7-15 16 0 9 7 16 15 16z"/>
<glyph glyph-name="central-transmission" unicode="&#112;" d="M487 424c0 34-27 61-60 62-34 1-62-25-64-58-2-33 23-62 56-65l0-101-157 0 0 101c33 3 57 31 56 64-2 33-29 59-62 59-33 0-60-26-62-59-1-33 23-61 56-64l0-101-157 0 0 101c33 3 58 31 56 64-1 33-29 59-62 59-33 0-60-26-61-59-2-33 23-61 56-64l0-214c-33-3-58-31-56-64 1-33 28-59 61-59 33 0 61 26 62 59 2 33-23 61-56 64l0 101 157 0 0-101c-33-3-57-31-56-64 2-33 29-59 62-59 33 0 60 26 62 59 1 33-23 61-56 64l0 101 168 0 0 113c32 3 56 29 57 61z m-282 0c0 21 13 39 32 47 18 8 40 4 55-11 14-14 19-36 11-55-8-19-27-31-47-31-28 0-50 22-51 50z m-168 0c0 21 12 39 31 47 19 8 41 4 55-11 15-14 19-36 11-55-8-19-26-31-47-31-28 0-50 22-50 50z m101-336c0-21-12-39-31-47-19-8-41-4-55 11-15 14-19 36-11 55 7 19 26 31 46 31 28 0 51-22 51-50z m169 0c0-21-13-39-31-47-19-8-41-4-56 11-14 14-19 36-11 55 8 19 27 31 47 31 28 0 51-22 51-50z m118 286c-28 0-51 22-51 50 0 28 23 51 51 51 28 0 50-23 50-51 0-28-22-50-50-50z"/>
<glyph glyph-name="central-card" unicode="&#113;" d="M477 406l-442 0c-3 0-5-1-7-3-2-1-2-4-2-6l0-282c0-5 4-9 9-9l442 0c3 0 5 1 7 3 1 1 2 4 2 6l0 282c0 2-1 5-2 6-2 2-4 3-7 3z m-9-282l-424 0 0 264 424 0z m-387 79l111 0c2 0 4 1 6 2 2 2 3 4 3 7l0 141c0 5-4 9-9 9l-111 0c-2 0-5-1-7-3-1-2-2-4-2-6l0-141c0-5 4-9 9-9z m9 141l92 0 0-123-92 0z m148 9c0 5 4 9 9 9l184 0c3 0 5-1 7-3 1-2 2-4 2-6 0-5-4-9-9-9l-184 0c-6 0-9 4-9 9z m0-141c0 5 4 9 9 9l184 0c3 0 7-2 8-5 2-2 2-6 0-9-1-3-5-4-8-4l-184 0c-5 0-9 4-9 9z m0-53c0 5 4 9 9 9l184 0c3 1 5 0 7-2 1-2 2-4 2-7 0-5-4-9-9-9l-184 0c-3 0-5 1-7 3-2 2-2 4-2 6z"/>
<glyph glyph-name="central-user" unicode="&#114;" d="M398 152c-35 23-86 38-142 38-56 0-107-15-142-38-36-23-55-52-55-82l0-11 394 0 0 11c0 30-19 59-55 82z m-142 170c36 0 66 29 66 66 0 36-30 65-66 65-36 0-66-29-66-65 0-18 7-35 19-47 13-12 30-19 47-19z m160-142c-42 27-98 43-160 43-62 0-118-16-160-43-42-27-70-66-70-110l0-28c0-9 7-16 16-16l428 0c9 0 16 7 16 16l0 28c0 44-28 83-70 110z m37-121l-394 0 0 11c0 30 19 59 55 82 35 23 86 38 142 38 56 0 107-15 142-38 36-23 55-52 55-82z m-197 230c54 0 99 44 99 99 0 54-45 98-99 98-54 0-99-44-99-98 0-55 45-99 99-99z m0 164c36 0 66-29 66-65 0-37-30-66-66-66-36 0-66 29-66 66 0 17 7 34 19 46 13 12 30 19 47 19z"/>
<glyph glyph-name="central-brand" unicode="&#115;" d="M115 390l28 0c-6 9-17 15-28 15-19 0-34-15-34-34 0-18 15-33 34-33 11 0 22 5 28 15l-28 0c-10 0-18 8-18 18 0 10 8 19 18 19z m193-37l-29 0c9-14 27-20 42-13 15 6 24 22 21 38-3 16-17 28-34 28-12 0-22-6-29-16l29 0c10 0 18-9 18-19 0-10-8-18-18-18z m-166-65c-4-1-5-5-5-9l0-167-22-20-22 20 0 167c0 1 0 2 0 3 0 1 0 1-1 2-1 1-2 2-3 3-1 0-1 0-2 1-27 12-45 40-42 70 2 30 24 55 53 63 29 7 60-5 76-31l21 0c-16 35-54 56-92 50-38-5-69-35-75-73-7-38 12-76 47-94l0-165c0-2 1-5 3-7l31-28c1-2 4-3 6-3 2 0 5 1 6 3l31 28c2 2 3 5 3 7l0 165c30 15 49 46 48 79l-18 0c0-28-17-53-43-64z m298 102l-8 2c-10 4-18 10-24 19l-2 2c-12 18-33 29-54 29l-71 0c-19 0-37-9-50-24-7-8-12-18-15-28l20 0c1 6 5 11 9 16 9 11 22 17 36 17l71 0c15 0 30-8 39-21l2-3c8-11 20-20 33-24l8-3c20-7 33-26 33-47 0-4-4-7-8-7l-8 0c-5 0-10-4-9-9 0-14-11-24-25-24-13 0-24 11-24 24 0 5-4 9-9 9l-68 0c-5 0-9-4-9-9 0-14-11-24-25-24-10 0-20 7-23 17-3 10-12 17-22 17-2 0-4 1-4 4l0 30-19 0 0-30c0-6 3-12 7-16 5-5 10-7 16-7 2 0 4-1 5-3 5-18 21-30 40-30 20 0 38 14 42 33l52 0c4-20 22-34 42-34 20 0 37 14 41 34l1 0c14 0 25 12 25 26 0 28-18 54-45 64z m-334-19c0-5 4-9 9-9l193 0c5 0 9 4 9 9 0 5-4 9-9 9l-193 0c-5 0-9-4-9-9z"/>
<glyph glyph-name="central-car" unicode="&#116;" d="M163 209c-1-6-4-11-9-16-12-12-32-12-45 0-5 6-9 14-9 22 0 8 4 16 9 21 13 12 33 12 45 0 5-4 8-9 9-15l11 0c-1 9-5 17-12 23-17 16-43 16-60 0-8-8-13-18-13-29 0-11 5-22 13-29 17-16 43-16 60 0 4 3 7 8 9 13l177 0c-1 3-2 7-2 10z m276 69c-16 5-34 7-54 9-9 1-18 2-28 3-3 3-7 6-10 9-22 17-53 39-92 39l-92 0c-17 0-29-14-42-28-11-13-22-27-36-27l-57 0 0-5c0-1 0-2 0-2 0-18 5-36 14-51 8-15 22-25 38-26-1 3-2 7-2 11-11 1-20 9-27 20-7 13-11 28-12 43l46 0c19 0 32 15 45 30 11 12 22 25 33 25l92 0c33 0 62-19 82-35l3-3-144 0c0-4 3-9 6-10l133 0c17 0 33-1 49-3 19-2 37-5 52-9 27-9 43-25 34-59l-39 0c-1-6-4-11-8-16-13-12-33-12-45 0-6 6-9 14-9 22 0 8 3 16 9 21 12 12 32 12 45 0 4-4 7-9 8-15l11 0c-1 9-5 17-12 23-17 16-43 16-60 0-8-8-13-18-13-29 0-11 5-22 13-29 17-16 43-16 60 0 4 3 7 8 10 13l38 0 1 3c15 45-5 65-40 76z"/>
</font>
</defs>
</svg>
